Coordinates
version=1
nRows=7
nColumns=40
inDegrees=yes

Units are S.I. units (second, meters, Newtons, ...)
If the header above contains a line with 'inDegrees', this indicates whether rotational values are in degrees (yes) or radians (no).

endheader
time	pelvis_tilt	pelvis_list	pelvis_rotation	pelvis_tx	pelvis_ty	pelvis_tz	hip_flexion_r	hip_adduction_r	hip_rotation_r	knee_angle_r	knee_angle_r_beta	ankle_angle_r	subtalar_angle_r	mtp_angle_r	hip_flexion_l	hip_adduction_l	hip_rotation_l	knee_angle_l	knee_angle_l_beta	ankle_angle_l	subtalar_angle_l	mtp_angle_l	lumbar_extension	lumbar_bending	lumbar_rotation	arm_flex_r	arm_add_r	arm_rot_r	elbow_flex_r	pro_sup_r	wrist_flex_r	wrist_dev_r	arm_flex_l	arm_add_l	arm_rot_l	elbow_flex_l	pro_sup_l	wrist_flex_l	wrist_dev_l
      5.10000000	     38.11465586	     -0.02455070	   -177.58628626	      0.40122904	      0.65148813	     -0.60832611	     97.02566388	    -15.01798561	      6.26301692	     70.36296289	      1.22806537	     16.50676925	      0.00000000	      0.00000000	     96.37463803	    -16.45288045	      2.28923529	     69.01093656	      1.20446806	     13.68656335	      0.00000000	      0.00000000	    -41.80385713	     -3.98085382	      2.37202359	     56.37797964	    -19.52441528	     16.25749218	     26.02261649	     76.07543517	      0.00000000	      0.00000000	     68.14007805	     -3.39572763	     15.22255288	     13.24455414	     26.22073340	      0.00000000	      0.00000000
      5.10500000	     38.05719545	     -0.05567917	   -177.70939299	      0.40136159	      0.65104450	     -0.60824884	     97.04742283	    -14.95916408	      6.27858679	     70.40591420	      1.22881502	     16.58975592	      0.00000000	      0.00000000	     96.39734313	    -16.51146473	      2.37814216	     69.17127047	      1.20726642	     13.92913527	      0.00000000	      0.00000000	    -41.76013737	     -4.06929593	      2.49131488	     56.34297013	    -20.05926180	     17.24167410	     26.20619261	     80.30325337	      0.00000000	      0.00000000	     67.89227971	     -3.46712098	     15.42531909	     13.60500024	     26.27422014	      0.00000000	      0.00000000
      5.11000000	     37.91032969	     -0.15047587	   -177.86398328	      0.40126387	      0.65090511	     -0.60838460	     97.00582314	    -14.89010124	      6.22334738	     70.48850725	      1.23025654	     16.48750347	      0.00000000	      0.00000000	     96.26609457	    -16.69192102	      2.28156401	     69.28677017	      1.20928227	     13.98280376	      0.00000000	      0.00000000	    -41.83333075	     -4.25611618	      2.51791261	     56.14496134	    -19.80065906	     16.95259926	     26.31959510	     76.79841665	      0.00000000	      0.00000000	     67.91670410	     -3.50538688	     15.72650111	     13.37909030	     27.94022471	      0.00000000	      0.00000000
      5.11500000	     37.83747650	     -0.08767851	   -177.93466597	      0.40143911	      0.65062804	     -0.60810082	     96.95074668	    -14.90255082	      6.13201633	     70.48501621	      1.23019561	     16.44876017	      0.00000000	      0.00000000	     96.30963106	    -16.65978136	      2.50561359	     69.42888628	      1.21176266	     14.16851836	      0.00000000	      0.00000000	    -41.81542715	     -4.18004916	      2.61821742	     56.21187101	    -19.95929297	     16.80005294	     26.31892589	     80.41659337	      0.00000000	      0.00000000	     67.78661280	     -3.43641905	     15.08866974	     13.53971334	     27.30430301	      0.00000000	      0.00000000
      5.12000000	     37.78964491	     -0.16682167	   -178.08041518	      0.40152673	      0.65038829	     -0.60813581	     96.96528557	    -14.80925338	      6.17030008	     70.48106756	      1.23012669	     16.35830824	      0.00000000	      0.00000000	     96.28244763	    -16.75305636	      2.51694165	     69.53255248	      1.21357198	     14.14038356	      0.00000000	      0.00000000	    -41.78899700	     -4.32702170	      2.62770246	     56.05491623	    -19.67745727	     16.39720395	     26.46323900	     76.13022713	      0.00000000	      0.00000000	     67.75967067	     -3.54531690	     15.34813892	     13.37374461	     29.30996850	      0.00000000	      0.00000000
      5.12500000	     37.74073390	     -0.17200701	   -178.19370249	      0.40165377	      0.65018897	     -0.60799539	     96.96874486	    -14.77375993	      6.08649645	     70.47838344	      1.23007984	     16.25131195	      0.00000000	      0.00000000	     96.30525946	    -16.82202424	      2.57683772	     69.63311844	      1.21532719	     14.10510470	      0.00000000	      0.00000000	    -41.75473430	     -4.36912648	      2.69774235	     55.96846789	    -19.42851053	     16.12882544	     26.52138274	     71.74388036	      0.00000000	      0.00000000	     67.61836573	     -3.62547031	     15.64447776	     13.36376230	     31.37243872	      0.00000000	      0.00000000
      5.13000000	     37.64463283	     -0.22402413	   -178.31197519	      0.40173800	      0.65007752	     -0.60791014	     96.91871240	    -14.72319879	      6.08286371	     70.44890719	      1.22956538	     16.12185950	      0.00000000	      0.00000000	     96.24518416	    -16.89876143	      2.58571116	     69.73369355	      1.21708255	     14.14193584	      0.00000000	      0.00000000	    -41.79285724	     -4.46594296	      2.75265685	     55.85082766	    -19.32157780	     15.92187466	     26.69240538	     68.92607872	      0.00000000	      0.00000000	     67.62976796	     -3.67727142	     15.90440322	     13.20748426	     32.83549875	      0.00000000	      0.00000000
